<svg  id="svg" version="1.1" xmlns="http://www.w3.org/2000/svg" viewBox="0 0 808 808" style="display: block;"><path d="M0 0 C266.64 0 533.28 0 808 0 C808 266.64 808 533.28 808 808 C541.36 808 274.72 808 0 808 C0 541.36 0 274.72 0 0 Z " transform="translate(0,0)" style="fill: #FCFCFC;"/><path d="M0 0 C6.06964991 2.38450532 9.12314453 8.49627799 12.75 13.625 C13.64282734 14.88179597 14.53606061 16.13830366 15.4296875 17.39453125 C15.86764648 18.01021973 16.30560547 18.6259082 16.75683594 19.26025391 C18.4456591 21.62367768 20.15923762 23.96858193 21.875 26.3125 C25.78809382 31.67722539 29.61379005 37.10163842 33.43701172 42.53051758 C36.60814812 47.03233649 39.7939068 51.52301716 43 56 C46.68828123 61.15154246 50.34982739 66.32139004 54 71.5 C57.73734769 76.80073723 61.48158317 82.09629236 65.25 87.375 C65.86814575 88.24088745 65.86814575 88.24088745 66.4987793 89.12426758 C68.91178122 92.49743208 71.35458745 95.84699673 73.8125 99.1875 C77.4705839 104.19329902 80.95370951 109.30995976 84.4375 114.4375 C88.81514812 120.87798992 93.29729849 127.18190785 98.01953125 133.375 C100.52803471 136.69988032 102.90129495 140.10843244 105.2734375 143.53125 C107.04630812 146.06621433 108.86047604 148.56631912 110.6875 151.0625 C114.71342855 156.57372258 118.64290939 162.15016087 122.5703125 167.73168945 C125.41000953 171.76253155 128.27382897 175.77205392 131.1875 179.75 C134.00652772 183.59995315 136.73873545 187.50276609 139.4375 191.4375 C142.42853428 195.78481361 145.50176592 200.04333436 148.6875 204.25 C151.72790625 208.26543308 154.59962664 212.32949115 157.35546875 216.54296875 C161.0927933 222.12676244 165.07883627 227.54434162 169 233 C170.68921102 235.35294438 172.37673167 237.70708788 174.0625 240.0625 C174.47798096 240.64290039 174.89346191 241.22330078 175.3215332 241.82128906 C178.06691238 245.6664301 180.76198156 249.54324006 183.4375 253.4375 C187.2074454 258.90892519 191.10727049 264.27258402 195.05004883 269.62036133 C199.50720139 275.67120279 203.80787504 281.82121239 208.07421875 288.0078125 C208.81285156 289.07773437 209.55148437 290.14765625 210.3125 291.25 C210.69051758 291.79760986 211.06853516 292.34521973 211.45800781 292.90942383 C214.63144417 297.49438656 217.87307873 302.0282187 221.12817383 306.55541992 C224.32145341 311.01177261 227.41742885 315.52911592 230.5 320.0625 C233.9336306 325.10704436 237.4825164 330.01228689 241.25 334.8125 C244.79755778 339.33452649 247.94769039 343.97934106 250.96875 348.8671875 C255.17871581 355.36025016 259.84113364 361.54857294 264.3984375 367.80029297 C266.71564457 370.98292036 269.0195912 374.17482836 271.3125 377.375 C271.92339478 378.22759399 271.92339478 378.22759399 272.54663086 379.09741211 C275.07014902 382.63999399 277.49309531 386.2361148 279.875 389.875 C283.5940114 395.52154779 287.6271172 400.89252702 291.70947266 406.27758789 C294.82532092 410.39846845 297.79334777 414.56665291 300.60546875 418.90234375 C302.18783574 421.28254283 303.86617859 423.57460554 305.5625 425.875 C309.23601778 430.88497854 312.75390111 435.98991184 316.25 441.125 C323.65062334 451.9891495 331.14920154 462.78421757 338.9375 473.375 C343.07415166 479.02756748 346.99958159 484.81970811 350.94116211 490.60888672 C354.5774664 495.94241162 358.26339626 501.23633816 362 506.5 C366.43799536 512.76277754 370.83381622 519.05327835 375.1875 525.375 C375.75275391 526.19033203 376.31800781 527.00566406 376.90039062 527.84570312 C377.42181641 528.60560547 377.94324219 529.36550781 378.48046875 530.1484375 C378.94348389 530.82052246 379.40649902 531.49260742 379.88354492 532.18505859 C381 534 381 534 382 537 C374.88424528 537.27981944 367.76991545 537.47189685 360.64990234 537.60424805 C358.23041786 537.65943495 355.81129811 537.73440762 353.39306641 537.82983398 C332.13045208 538.64762684 332.13045208 538.64762684 327.6887207 534.63867188 C325.63222942 531.81120185 324.30005994 529.23143058 323 526 C322.10165541 524.68080099 321.16813364 523.38423258 320.1875 522.125 C318 519 318 519 316.74609375 516.8359375 C314.32628231 512.90577395 311.59736544 509.22464103 308.875 505.5 C304.93573265 500.08323398 301.03596977 494.65010783 297.25 489.125 C293.00599427 482.94622696 288.51948857 476.97936205 284 471 C279 464.33333333 279 464.33333333 279 462 C278.34 462 277.68 462 277 462 C275.96986723 460.35178756 274.97934924 458.67888441 274 457 C272.52976442 454.99660206 271.02121096 453.0273975 269.5 451.0625 C267.84517651 448.7871177 266.4466551 446.41232512 265 444 C263.8730076 442.40320114 262.72554395 440.82073462 261.5625 439.25 C257.98376567 434.37290349 254.47977942 429.4481351 251 424.5 C247.68266849 419.78440759 244.35083989 415.08440831 240.9375 410.4375 C238.3145088 406.857762 235.78307227 403.22954144 233.29199219 399.55786133 C228.60048205 392.64659378 223.73154423 385.90870811 218.6875 379.25 C212.99674392 371.73479286 207.50838873 364.10728333 202.13183594 356.36474609 C196.73052881 348.58912073 191.19728725 340.9140673 185.63525391 333.25292969 C182.79403757 329.33851578 179.95873272 325.41983379 177.125 321.5 C176.57682617 320.74178955 176.02865234 319.9835791 175.46386719 319.20239258 C172.13384961 314.5896751 168.84532953 309.95124452 165.6015625 305.27734375 C163.78944719 302.70060417 161.9277038 300.16354957 160.0625 297.625 C157.33468543 293.89385133 154.7248599 290.11300099 152.1875 286.25 C147.85086545 279.68598895 143.19159317 273.38605062 138.51806641 267.06103516 C131.1308965 257.03168676 123.89440832 246.90896671 116.88061523 236.61523438 C113.51790709 231.70036545 109.98706904 226.93639547 106.3828125 222.1953125 C102.95587958 217.59985164 99.6715829 212.90750945 96.37792969 208.21606445 C93.55764474 204.20081232 90.71308019 200.207963 87.8125 196.25 C83.42289227 190.24844089 79.21879214 184.12183424 75 178 C71.37277799 172.76665637 67.69967131 167.57485893 63.9375 162.4375 C61.56479696 159.19207859 59.26148376 155.92779558 57.0625 152.5625 C52.17945089 145.14504225 46.70610056 138.1390419 41.1875 131.1875 C39.2372477 128.70170931 37.5057945 126.27650715 36 123.5 C34.06047217 119.92932116 31.63899576 116.88175163 29.11328125 113.70703125 C26.54547958 110.41777699 24.08350222 107.05880824 21.625 103.6875 C16.80340144 97.08382671 11.91973358 90.53104168 7 84 C5.81210734 82.41696123 4.62455619 80.83366609 3.4375 79.25 C2.96183594 78.61578125 2.48617188 77.9815625 1.99609375 77.328125 C1.66738281 76.88984375 1.33867187 76.4515625 1 76 C-2.85347425 79.64740611 -5.92241856 83.45672612 -8.9375 87.8125 C-9.81172105 89.05783885 -10.68671739 90.30263382 -11.5625 91.546875 C-12.18898438 92.43922852 -12.18898438 92.43922852 -12.828125 93.34960938 C-14.73482789 96.0348826 -16.73108593 98.64943346 -18.74609375 101.25390625 C-20.08707041 103.0673146 -20.08707041 103.0673146 -21.4140625 105.38671875 C-23.09778247 108.16112432 -24.96230403 110.67525665 -26.9375 113.25 C-30.74952751 118.28510473 -34.4331812 123.39433631 -38.0625 128.5625 C-42.00246653 134.17243513 -45.97836801 139.75023606 -50.0234375 145.28515625 C-59.40752655 158.17436948 -68.60269073 171.21102737 -77.6875 184.3125 C-80.26234843 188.01068917 -82.95976622 191.6007072 -85.6875 195.1875 C-89.11767519 199.71741567 -89.11767519 199.71741567 -92.0625 204.5625 C-94.29237202 208.51872455 -96.89030172 212.04950963 -99.5859375 215.69921875 C-103.00695202 220.34616935 -106.30158891 225.08356833 -109.61132812 229.81005859 C-111.99524782 233.20323479 -114.40806764 236.56388381 -116.91015625 239.87109375 C-120.49660923 244.62250226 -123.90477883 249.49454129 -127.3125 254.375 C-127.94478516 255.27605469 -128.57707031 256.17710937 -129.22851562 257.10546875 C-129.82986328 257.96527344 -130.43121094 258.82507813 -131.05078125 259.7109375 C-131.86542847 260.87568604 -131.86542847 260.87568604 -132.6965332 262.06396484 C-134.0341735 263.96121935 -134.0341735 263.96121935 -135 266 C-135.66 266 -136.32 266 -137 266 C-137.24363281 266.70769531 -137.48726562 267.41539062 -137.73828125 268.14453125 C-139.17984087 271.40700829 -141.00212548 273.87020996 -143.1875 276.6875 C-147.28010894 282.02418307 -151.17738415 287.46750211 -155 293 C-158.43217521 297.93119207 -161.88505281 302.84534448 -165.39282227 307.72314453 C-169.81641629 313.87778635 -174.12204105 320.10120752 -178.375 326.375 C-182.96200731 333.13440965 -187.72661753 339.71229788 -192.67993164 346.20678711 C-196.52549902 351.28114593 -200.06990233 356.51243374 -203.55664062 361.83764648 C-206.30648467 366.0188626 -209.22868364 369.98812544 -212.35546875 373.8984375 C-215.41294231 377.80561274 -218.18379381 381.91744606 -221 386 C-224.61555627 391.20508329 -228.2633197 396.38096398 -232 401.5 C-237.66462189 409.27111905 -243.1082348 417.10992618 -248.23046875 425.25 C-250.56194693 428.87331267 -253.02687211 432.39257029 -255.51953125 435.90625 C-256.70678946 437.58532757 -257.85930068 439.28895102 -259 441 C-259.66 441 -260.32 441 -261 441 C-261.4021875 441.8353125 -261.4021875 441.8353125 -261.8125 442.6875 C-263.10899496 445.21225334 -264.42476323 447.63714484 -266 450 C-266.66 450 -267.32 450 -268 450 C-268.28875 450.7425 -268.5775 451.485 -268.875 452.25 C-269.24625 453.1575 -269.6175 454.065 -270 455 C-270.268125 455.66 -270.53625 456.32 -270.8125 457 C-272 459 -272 459 -274.5625 461.5 C-277.04730546 464.04851842 -277.26711442 464.75436385 -278 468 C-279.29233607 469.37310707 -280.62437146 470.71034824 -282 472 C-282.33 472.66 -282.66 473.32 -283 474 C-283.66 474 -284.32 474 -285 474 C-285.061875 474.721875 -285.12375 475.44375 -285.1875 476.1875 C-286.24831738 479.85956016 -288.26065167 481.39427842 -291 484 C-292.29519995 486.16620544 -292.29519995 486.16620544 -293 488 C-293.66 488 -294.32 488 -295 488 C-295.226875 488.680625 -295.45375 489.36125 -295.6875 490.0625 C-297.08326548 493.18635606 -298.81059852 495.63391842 -300.83984375 498.3671875 C-302.08890716 500.03011717 -302.08890716 500.03011717 -303.0625 502.1875 C-304.31902894 504.61678929 -305.95227446 506.20824015 -308 508 C-308.66 508 -309.32 508 -310 508 C-310.24621094 508.88429688 -310.49242187 509.76859375 -310.74609375 510.6796875 C-312.0799299 514.21165237 -313.60072596 516.28549343 -316.0625 519.125 C-316.77535156 519.95257812 -317.48820312 520.78015625 -318.22265625 521.6328125 C-318.65666748 522.10976563 -319.09067871 522.58671875 -319.5378418 523.078125 C-321.1612806 525.08506896 -321.1612806 525.08506896 -322.48754883 528.015625 C-324.53764002 531.68093135 -326.39586185 534.77971803 -330 537 C-337.59639884 539.02598192 -345.79708985 538.12327495 -353.5625 537.75 C-355.73748324 537.68975026 -357.91262643 537.6350073 -360.08789062 537.5859375 C-365.39543866 537.45426026 -370.69697358 537.25401765 -376 537 C-375.37903688 535.56480923 -374.75396864 534.1313942 -374.12719727 532.69873047 C-373.77955826 531.90030731 -373.43191925 531.10188416 -373.07374573 530.27926636 C-371.67051099 527.30058562 -369.91409422 524.75284203 -367.9375 522.125 C-367.26589844 521.22007812 -366.59429687 520.31515625 -365.90234375 519.3828125 C-364 517 -364 517 -362.44140625 515.5546875 C-360.81457437 513.94560347 -360.81457437 513.94560347 -359.64453125 511.2890625 C-357.67455599 507.34911198 -355.25984323 503.93942457 -352.6875 500.375 C-351.61543869 498.87271452 -350.54384427 497.37009579 -349.47265625 495.8671875 C-348.90949707 495.07924805 -348.34633789 494.29130859 -347.76611328 493.47949219 C-344.69595423 489.16921636 -341.6604613 484.83474765 -338.625 480.5 C-338.05483154 479.68837402 -337.48466309 478.87674805 -336.8972168 478.04052734 C-333.5783474 473.3039968 -330.36581403 468.52389217 -327.27490234 463.63476562 C-326.85418457 463.09529297 -326.4334668 462.55582031 -326 462 C-325.34 462 -324.68 462 -324 462 C-323.60361328 460.90751953 -323.60361328 460.90751953 -323.19921875 459.79296875 C-321.99270071 456.98300002 -320.59979984 454.78690825 -318.8125 452.3125 C-316.87234506 449.61491506 -314.94626822 446.92022644 -313.08984375 444.1640625 C-312.17912109 442.81441406 -312.17912109 442.81441406 -311.25 441.4375 C-310.69828125 440.61121094 -310.1465625 439.78492188 -309.578125 438.93359375 C-308 437 -308 437 -305 436 C-304.92007813 435.29230469 -304.84015625 434.58460938 -304.7578125 433.85546875 C-303.80865468 430.27900294 -302.16119999 428.21481151 -299.875 425.3125 C-296.97640929 421.57637246 -294.12829251 417.82765268 -291.4375 413.9375 C-289.03035208 410.4598923 -286.56807842 407.03239166 -284.0625 403.625 C-281.3796851 399.95404908 -278.80782445 396.23815173 -276.3125 392.4375 C-272.39917859 386.51008167 -268.2579574 380.76498414 -264.08398438 375.01904297 C-260.12071379 369.56091509 -256.19958498 364.07514728 -252.3125 358.5625 C-251.80750977 357.84682861 -251.30251953 357.13115723 -250.78222656 356.39379883 C-248.82424717 353.61348156 -246.88651351 350.82977026 -245 348 C-244.34 348 -243.68 348 -243 348 C-242.82585571 347.12190674 -242.82585571 347.12190674 -242.64819336 346.22607422 C-241.95783733 343.85520179 -241.06706444 342.37887458 -239.62890625 340.3828125 C-239.14188232 339.70033447 -238.6548584 339.01785645 -238.15307617 338.31469727 C-237.62818604 337.59209717 -237.1032959 336.86949707 -236.5625 336.125 C-236.02407471 335.373396 -235.48564941 334.62179199 -234.9309082 333.84741211 C-233.82466649 332.3041487 -232.71585225 330.76272613 -231.60449219 329.22314453 C-229.70637298 326.59315769 -227.82099141 323.95426224 -225.93725586 321.31396484 C-225.10553602 320.14835474 -224.27301889 318.98331314 -223.43969727 317.81884766 C-220.53999337 313.76640462 -217.67761386 309.68938063 -214.828125 305.6015625 C-213.07082738 303.10079282 -211.29363503 300.61499453 -209.51123047 298.13208008 C-204.91557557 291.72965493 -200.4192738 285.26683691 -195.97241211 278.76025391 C-192.7003207 273.98489479 -189.32036955 269.30033481 -185.890625 264.63671875 C-183.87347583 261.82354584 -181.96356106 258.95525629 -180.0625 256.0625 C-177.39383151 252.01796157 -174.62061991 248.10689611 -171.6875 244.25 C-166.6285529 237.59211107 -161.93437296 230.70203122 -157.2265625 223.79345703 C-155.08752984 220.66580299 -152.9063866 217.56802597 -150.7265625 214.46875 C-149.46301734 212.66205195 -148.20915187 210.84857361 -146.9609375 209.03125 C-142.98251708 203.23934465 -138.93410862 197.52023785 -134.75 191.875 C-129.94376241 185.38488093 -125.38011558 178.74718094 -120.84790039 172.0637207 C-116.96165031 166.35259259 -112.93706063 160.76520895 -108.8190918 155.21972656 C-105.3490068 150.52824826 -102.10229505 145.71364716 -98.8984375 140.8359375 C-96.34216521 137.01730852 -93.63204834 133.32162379 -90.9140625 129.6171875 C-86.7785247 123.96247255 -82.80619776 118.19792057 -78.8828125 112.39453125 C-78.31715576 111.56050781 -77.75149902 110.72648437 -77.16870117 109.8671875 C-76.04011043 108.20175617 -74.91509326 106.53389587 -73.79418945 104.86328125 C-70.84645032 100.51651662 -67.76921571 96.47846273 -64.29492188 92.54199219 C-62.58367512 90.50424059 -61.29992249 88.31725313 -60 86 C-54.6795995 77.75522232 -49.02985825 69.7627862 -43.29541016 61.80419922 C-41.98550862 59.97981694 -40.6847839 58.14922572 -39.38671875 56.31640625 C-35.25137635 50.48373346 -31.09755309 44.69976973 -26.5703125 39.16015625 C-24.86412611 36.8130889 -23.47873461 34.34295147 -22.0625 31.8137207 C-20.37428528 28.93188542 -18.40908916 26.25348496 -16.4375 23.5625 C-12.50773736 18.13383284 -8.66364235 12.65311691 -4.875 7.125 C-4.3895874 6.41674072 -3.9041748 5.70848145 -3.40405273 4.97875977 C-2.26833688 3.31987898 -1.13400754 1.66004906 0 0 Z " transform="translate(402,97)" style="fill: #7E114F;"/><path d="M0 0 C4.60041439 1.50500796 6.55466848 5.33897264 9.0625 9.1875 C10.03433977 10.64204273 11.0083561 12.09513322 11.984375 13.546875 C12.72977539 14.65772461 12.72977539 14.65772461 13.49023438 15.79101562 C15.84536286 19.23687632 18.32377102 22.58748568 20.8125 25.9375 C24.14210736 30.43500634 27.36357078 34.96299226 30.42578125 39.6484375 C33.72553068 44.57759174 37.23291979 49.36618015 40.69433594 54.18261719 C42.75881062 57.05620535 44.81758647 59.93385344 46.875 62.8125 C47.28202148 63.38186279 47.68904297 63.95122559 48.10839844 64.5378418 C51.93861931 69.90208246 55.7364033 75.28903549 59.53417969 80.67626953 C64.32713072 87.47167056 69.15902582 94.23876632 74 101 C75.72979811 103.41621554 77.45906467 105.83280938 79.1875 108.25 C79.81591797 109.12881836 79.81591797 109.12881836 80.45703125 110.02539062 C82.86628999 113.39911529 85.25520784 116.7859616 87.625 120.1875 C89.99987697 123.59444967 92.42200631 126.96136296 94.875 130.3125 C98.16141374 134.81235881 101.3503899 139.37161121 104.51000977 143.96118164 C107.64247216 148.50328535 110.83852776 152.99715516 114.05371094 157.48095703 C117.43506664 162.19952066 120.78303089 166.94098078 124.125 171.6875 C129.54865643 179.38267521 135.04852727 187.01677954 140.65234375 194.58203125 C144.82827938 200.23038155 148.96983875 205.86669637 152.8125 211.75 C157.95258398 219.57551561 163.61036584 227.02211519 169.18310547 234.54199219 C176.22952285 244.07482344 183.19104135 253.66581918 189.8125 263.5 C190.23950195 264.12938477 190.66650391 264.75876953 191.10644531 265.40722656 C194 269.75849142 194 269.75849142 194 272 C194.66 272 195.32 272 196 272 C197.28100586 273.49707031 197.28100586 273.49707031 198.71484375 275.578125 C199.23626953 276.32707031 199.75769531 277.07601563 200.29492188 277.84765625 C200.83697266 278.64042969 201.37902344 279.43320312 201.9375 280.25 C203.00870738 281.79715701 204.08030967 283.34404069 205.15234375 284.890625 C205.62663818 285.58188477 206.10093262 286.27314453 206.58959961 286.98535156 C207.56842567 288.38352928 208.60300939 289.74365016 209.67797852 291.06933594 C211 293 211 293 211 296 C211.99 296.33 212.98 296.66 214 297 C215.47265625 298.79296875 215.47265625 298.79296875 217.0625 301.1875 C219.92614464 305.4167903 222.83434039 309.60116744 225.8125 313.75 C226.6681313 314.94519615 227.52359786 316.14051025 228.37890625 317.3359375 C228.80961426 317.93760742 229.24032227 318.53927734 229.68408203 319.15917969 C231.00940528 321.01315692 232.33135964 322.86949158 233.65234375 324.7265625 C237.55413958 330.20888791 241.46973303 335.67426376 245.52734375 341.04296875 C251.14620647 348.50994546 256.50005121 356.14646077 261.77416992 363.85839844 C264.96949336 368.52289352 268.21085502 373.15118618 271.5 377.75 C271.90911621 378.32210205 272.31823242 378.8942041 272.73974609 379.48364258 C274.37651452 381.76477296 276.01562415 384.01932461 277.78125 386.203125 C279 388 279 388 279 391 C279.66 391 280.32 391 281 391 C282.40112305 392.67724609 282.40112305 392.67724609 284.01171875 395.0234375 C284.90213867 396.30927734 284.90213867 396.30927734 285.81054688 397.62109375 C286.42994141 398.52988281 287.04933594 399.43867187 287.6875 400.375 C288.28755859 401.24511719 288.88761719 402.11523438 289.50585938 403.01171875 C290.72215762 404.77541653 291.93421321 406.54204743 293.14208984 408.31152344 C294.41386253 410.15183367 295.70703002 411.97749082 297.01806641 413.79003906 C297.6579248 414.6765918 298.2977832 415.56314453 298.95703125 416.4765625 C299.83258667 417.67273193 299.83258667 417.67273193 300.72583008 418.89306641 C302 421 302 421 302 424 C302.99 424.33 303.98 424.66 305 425 C306.33447266 426.6105957 306.33447266 426.6105957 307.6640625 428.67578125 C308.14617188 429.42150391 308.62828125 430.16722656 309.125 430.93554688 C309.62 431.71994141 310.115 432.50433594 310.625 433.3125 C311.12773438 434.08529297 311.63046875 434.85808594 312.1484375 435.65429688 C314.37103192 439.12859434 316.06887865 441.96569891 317 446 C310.50403621 446.12661746 304.00838964 446.21427346 297.51147461 446.2746582 C295.30074167 446.2998263 293.09009212 446.3339638 290.87963867 446.37719727 C287.70470633 446.43774679 284.53087239 446.4661867 281.35546875 446.48828125 C280.36475876 446.51408768 279.37404877 446.5398941 278.35331726 446.56648254 C275.80441199 446.56752803 273.49227511 446.53490068 271 446 C268.9777832 443.59448242 268.9777832 443.59448242 268 441 C267.34 440.34 266.68 439.68 266 439 C265.70222656 438.22785156 265.40445313 437.45570313 265.09765625 436.66015625 C263.89903743 433.75531847 262.45120239 431.84173861 260.4375 429.4375 C251.25918675 418.25091206 242.75361113 406.48716785 234.5625 394.5625 C231.01142098 389.39481723 227.30471387 384.36548469 223.51953125 379.3671875 C218.72730047 373.00223194 214.12016414 366.49865507 209.46582031 360.03271484 C207.59034564 357.43191502 205.70255542 354.84021765 203.8125 352.25 C201.35077005 348.8734727 198.91670188 345.47890292 196.49853516 342.07104492 C192.39626967 336.29305933 188.21065346 330.59039911 183.9375 324.9375 C179.6268622 319.23116593 175.50119272 313.43223763 171.46484375 307.52734375 C167.89147318 302.35981541 164.10979138 297.34246221 160.36816406 292.29638672 C156.46325598 287.01815122 152.63879478 281.69210295 148.875 276.3125 C144.55557305 270.14443823 140.10786778 264.09165636 135.56762695 258.0847168 C130.15009484 250.9043997 124.90253972 243.60428537 119.65429688 236.29980469 C117.43138864 233.20951608 115.20021919 230.12523457 112.96923828 227.04077148 C108.10730287 220.31817497 103.26564515 213.58178369 98.44970703 206.82617188 C95.41228428 202.56858784 92.34340685 198.33497572 89.26171875 194.109375 C85.75838648 189.29304946 82.27611494 184.4615395 78.79125977 179.63183594 C75.74642495 175.41338315 72.69278284 171.20178817 69.625 167 C67.22965127 163.71452169 64.87960903 160.40357065 62.5625 157.0625 C60.01207598 153.39842929 57.37739547 149.81293172 54.6875 146.25 C50.49538658 140.69616266 46.44192666 135.05364149 42.41015625 129.3828125 C38.9799575 124.5595636 35.48867098 119.7810329 32 115 C29.9989125 112.24948562 27.99876353 109.49829743 26 106.74609375 C24.67161888 104.92216421 23.33831261 103.10181107 22 101.28515625 C18.52444441 96.55378467 15.1641207 91.78020951 11.9375 86.875 C8.53254239 81.71025241 4.88704507 76.81021828 1 72 C-1.87420123 74.71604715 -1.87420123 74.71604715 -4 78 C-4.66 78 -5.32 78 -6 78 C-6.23589844 78.6909375 -6.47179687 79.381875 -6.71484375 80.09375 C-8.25015841 83.56570777 -10.31931273 86.46497443 -12.5625 89.5 C-13.46048537 90.73505954 -14.35760013 91.9707525 -15.25390625 93.20703125 C-15.70910645 93.83303223 -16.16430664 94.4590332 -16.63330078 95.10400391 C-18.79582341 98.10403084 -20.90050689 101.14316983 -23 104.1875 C-24.0828125 105.75564453 -24.0828125 105.75564453 -25.1875 107.35546875 C-26.47109312 109.2282975 -27.74056193 111.1108429 -29 113 C-29.66 113 -30.32 113 -31 113 C-31.20753906 113.66 -31.41507812 114.32 -31.62890625 115 C-33.510737 119.11751003 -36.17199024 122.43541904 -38.9375 126 C-42.19357428 130.22704733 -45.34393828 134.35998973 -48 139 C-48.83615042 140.28275895 -49.68863966 141.55512728 -50.5625 142.8125 C-50.97628906 143.41707031 -51.39007813 144.02164063 -51.81640625 144.64453125 C-52.20699219 145.09183594 -52.59757812 145.53914062 -53 146 C-53.66 146 -54.32 146 -55 146 C-55.26425781 146.72832031 -55.52851563 147.45664062 -55.80078125 148.20703125 C-57.00729929 151.01699998 -58.40020016 153.21309175 -60.1875 155.6875 C-60.73792969 156.45449219 -61.28835938 157.22148437 -61.85546875 158.01171875 C-62.56316406 158.99785156 -63.27085937 159.98398437 -64 161 C-65.08634544 162.56351872 -66.17223562 164.12735381 -67.2578125 165.69140625 C-70.94775129 170.97038903 -74.79836539 176.11681325 -78.6875 181.25 C-82.60226991 186.41796186 -86.44719514 191.57318819 -90 197 C-91.23942733 198.73676056 -92.4894716 200.46599324 -93.75 202.1875 C-94.44738281 203.14269531 -95.14476562 204.09789062 -95.86328125 205.08203125 C-97.23482396 206.95505209 -98.60715161 208.82749855 -99.98046875 210.69921875 C-103.53908676 215.56479428 -107.0255801 220.46770695 -110.4375 225.4375 C-114.04774545 230.69418457 -117.82442041 235.80552767 -121.671875 240.890625 C-127.03626337 248.0551437 -132.28273078 255.32490018 -137.1875 262.8125 C-139.6603886 266.57378435 -142.36616463 270.09566371 -145.15234375 273.62890625 C-150.02100001 279.87684356 -154.58446182 286.32157292 -158.9375 292.9375 C-161.62165583 297.00820806 -164.41800144 300.93566181 -167.375 304.8125 C-171.37423334 310.06149375 -175.05138421 315.47468273 -178.63818359 321.01293945 C-180.56557275 323.96530992 -182.45652181 326.56651005 -185 329 C-186.27638866 330.66762953 -187.52358459 332.35778258 -188.75 334.0625 C-189.80574219 335.52816406 -189.80574219 335.52816406 -190.8828125 337.0234375 C-193.33506469 340.47106881 -195.7612462 343.93571467 -198.1640625 347.41796875 C-199.6961628 349.57268853 -201.26286283 351.68705209 -202.85546875 353.796875 C-205.88871483 357.82505214 -208.79819575 361.93041111 -211.6875 366.0625 C-215.66923817 371.73293014 -219.70027209 377.36096666 -223.8125 382.9375 C-227.40129934 387.80525604 -230.94090155 392.69839603 -234.3828125 397.671875 C-235.51059915 399.29545192 -236.65237067 400.90936517 -237.8046875 402.515625 C-240.66391049 406.51608291 -243.29840257 410.44344299 -245.5625 414.8125 C-247.36550594 418.17344311 -249.1532892 420.1274412 -252.25 422.42578125 C-256.973616 426.67492689 -261.77052456 432.86394671 -264.078125 438.75 C-265 441 -265 441 -268 443 C-268.33 443.99 -268.66 444.98 -269 446 C-283.85 446 -298.7 446 -314 446 C-314 440.54660905 -312.88398218 438.92552405 -309.625 435 C-308.70417706 433.84785603 -307.78361147 432.69550634 -306.86328125 431.54296875 C-306.38842285 430.95692871 -305.91356445 430.37088867 -305.42431641 429.76708984 C-303.17866211 426.9810004 -300.99368308 424.1491769 -298.8125 421.3125 C-298.39524658 420.77133545 -297.97799316 420.2301709 -297.5480957 419.67260742 C-293.87493914 414.88610919 -290.41518446 409.97198693 -287 405 C-285.87639778 403.39485398 -284.75136833 401.79070619 -283.625 400.1875 C-280.94708347 396.36190496 -278.28305893 392.52691846 -275.625 388.6875 C-275.24617676 388.14061523 -274.86735352 387.59373047 -274.47705078 387.03027344 C-272.55862021 384.25911708 -270.64659967 381.48396215 -268.7421875 378.703125 C-263.13264959 370.53313599 -257.29102277 362.568794 -251.2421875 354.71875 C-250.72914063 354.0484375 -250.21609375 353.378125 -249.6875 352.6875 C-249.25824219 352.13449219 -248.82898438 351.58148437 -248.38671875 351.01171875 C-246.84014577 348.83339816 -246.84014577 348.83339816 -245.13671875 345.6875 C-243.07124203 342.02216305 -240.65548532 338.66797113 -238.125 335.3125 C-233.62265222 329.25969529 -229.2502742 323.12671751 -224.9375 316.9375 C-220.55319783 310.64852257 -216.1486477 304.37700347 -211.68066406 298.1472168 C-208.49207535 293.69837017 -205.33756025 289.22618666 -202.1875 284.75 C-197.41507937 277.97365598 -192.58226008 271.24297213 -187.72216797 264.52929688 C-183.18880986 258.26680398 -178.68848581 251.98142831 -174.20166016 245.68554688 C-172.5546834 243.37536249 -170.90550362 241.06675537 -169.25610352 238.75830078 C-168.42164871 237.59022624 -167.58749934 236.42193345 -166.75366211 235.25341797 C-164.65146966 232.30795921 -162.54482645 229.36586598 -160.4296875 226.4296875 C-156.44227249 220.88587478 -152.51564038 215.32357365 -148.75 209.625 C-141.57111068 198.78400519 -141.57111068 198.78400519 -139 196 C-138.34 196 -137.68 196 -137 196 C-136.91105469 195.44699219 -136.82210937 194.89398438 -136.73046875 194.32421875 C-135.78526545 191.31675369 -134.21468293 189.32338147 -132.3125 186.8125 C-129.83156254 183.48409187 -127.39614353 180.16254482 -125.125 176.6875 C-122.22418268 172.28168875 -119.16705243 167.99437085 -116.08984375 163.71118164 C-113.74569563 160.44692081 -111.41493084 157.17447958 -109.109375 153.8828125 C-103.55315789 145.95345627 -97.92055636 138.10942384 -92.00830078 130.43994141 C-89.78279148 127.52304157 -87.72455092 124.63516142 -85.93359375 121.4296875 C-84.00500826 118.00888333 -81.87745774 114.91989155 -79.5625 111.75 C-75.45908465 106.08869885 -71.48855173 100.34801615 -67.5625 94.5625 C-63.22239773 88.17802279 -58.77451154 81.90098668 -54.16650391 75.70776367 C-50.45274527 70.68780963 -46.93652761 65.54625571 -43.4375 60.375 C-38.93080917 53.71797573 -34.23409628 47.30437055 -29.26953125 40.984375 C-26.28881346 37.06480807 -23.62764586 32.96807748 -20.94140625 28.84375 C-19.02487354 26.03643449 -16.97582489 23.43275146 -14.8125 20.8125 C-11.75668516 17.09548546 -9.44908542 13.37269115 -7.23046875 9.1171875 C-5.23610987 5.68562397 -2.6734464 2.92213909 0 0 Z " transform="translate(402,188)" style="fill: #8A105D;"/><path d="M0 0 C3.0916142 0.29244999 3.97428684 0.97109686 6.078125 3.3359375 C6.79484375 4.33882813 7.5115625 5.34171875 8.25 6.375 C8.64131104 6.91592285 9.03262207 7.4568457 9.43579102 8.01416016 C10.24367345 9.13256577 11.04713016 10.25418128 11.84619141 11.37890625 C13.51878951 13.72889597 15.23131409 16.04932671 16.9375 18.375 C20.29553002 23.00881702 23.62180748 27.66507119 26.94384766 32.32470703 C30.38314199 37.14541029 33.844069 41.9502259 37.3125 46.75 C38.12388428 47.87305542 38.12388428 47.87305542 38.95166016 49.01879883 C41.82441083 52.99368728 44.70005933 56.96645836 47.578125 60.9375 C48.16166748 61.74348633 48.74520996 62.54947266 49.34643555 63.37988281 C50.45892521 64.91638155 51.57231397 66.45222985 52.68676758 67.98730469 C54.89540309 71.03887994 57.06238114 74.09408303 59.14453125 77.234375 C60.85740875 79.787464 62.66646618 82.13309104 64.625 84.5 C68.3526203 89.10592786 71.80515453 93.85920224 75.22387695 98.69433594 C77.86442866 102.42394577 80.55575998 106.10464049 83.3125 109.75 C87.05115061 114.69976277 90.69232374 119.7130479 94.3125 124.75 C99.02296531 131.30201656 103.81551011 137.78348086 108.67749023 144.22363281 C112.41281457 149.18417337 116.0422321 154.21271262 119.63574219 159.27661133 C122.15276648 162.82198192 124.71490998 166.32327251 127.33984375 169.7890625 C129.58471374 172.77870112 131.79163996 175.79586923 134 178.8125 C138.26152701 184.63188616 142.5328215 190.44394847 146.8125 196.25 C147.39878174 197.04543213 147.98506348 197.84086426 148.58911133 198.66040039 C150.39260463 201.10703408 152.19627074 203.55354026 154 206 C155.80383567 208.44660407 157.60760854 210.89325426 159.41113281 213.34008789 C160.58734118 214.93579333 161.76377042 216.531336 162.94042969 218.12670898 C165.68531939 221.85019463 168.42445592 225.57759115 171.1484375 229.31640625 C171.64190674 229.9928418 172.13537598 230.66927734 172.64379883 231.36621094 C173.55164868 232.61167282 174.45789177 233.85830851 175.36206055 235.10644531 C177.38516059 237.88066273 179.45410823 240.572599 181.67578125 243.19140625 C183.44600562 245.33055132 184.84591739 247.19359071 186.125 249.625 C187.84642819 252.9094007 187.84642819 252.9094007 189.75 255.3125 C191 257 191 257 191 259 C180.85571469 259.25552582 170.71220158 259.45064426 160.56534672 259.56993389 C155.85286912 259.62720686 151.14260183 259.70479852 146.43139648 259.82983398 C141.87947036 259.94987801 137.32966117 260.01522908 132.77627373 260.04364967 C131.04452627 260.06388497 129.3128874 260.10340587 127.58204842 260.16303062 C114.03611707 260.61085791 114.03611707 260.61085791 108.94821167 256.58560181 C106.65869046 253.82310514 104.78409161 251.10706672 103 248 C102.319375 246.989375 101.63875 245.97875 100.9375 244.9375 C100.298125 243.968125 99.65875 242.99875 99 242 C97.86386226 240.57554589 96.71642341 239.16008483 95.5625 237.75 C90.99386693 232.11449217 86.78382093 226.23565871 82.56860352 220.33300781 C79.80460589 216.46834014 76.97472071 212.70620941 74 209 C72.40481234 206.77813148 70.82221248 204.55039916 69.25 202.3125 C65.63415773 197.20350561 61.87535039 192.26893028 57.921875 187.4140625 C55.19951636 183.99451445 52.6703752 180.44508345 50.1171875 176.8984375 C47.46961779 173.2739048 44.7293332 169.72570628 41.98388672 166.17504883 C34.13929301 156.01548744 26.49854564 145.70094117 18.875 135.375 C18.28775146 134.58029297 17.70050293 133.78558594 17.09545898 132.96679688 C14.3543806 129.24514834 11.64048641 125.50984185 8.99609375 121.71875 C8.31087646 120.73962646 8.31087646 120.73962646 7.61181641 119.74072266 C6.76984211 118.53170959 5.93443519 117.31808558 5.10693359 116.09912109 C2.74765677 112.70020929 2.74765677 112.70020929 -1 111 C-1.23460937 111.68835938 -1.46921875 112.37671875 -1.7109375 113.0859375 C-3.26511899 116.5993296 -5.360596 119.54829948 -7.625 122.625 C-8.29813232 123.5523999 -8.29813232 123.5523999 -8.98486328 124.49853516 C-9.89588095 125.75260033 -10.80910637 127.00506486 -11.72460938 128.25585938 C-12.8280471 129.76484849 -13.92266148 131.2802822 -15.015625 132.796875 C-21.9379188 142.39501347 -29.08641512 151.82904015 -36.2265625 161.265625 C-37.27644127 162.65594833 -38.32592798 164.04656783 -39.375 165.4375 C-39.87789551 166.10354248 -40.38079102 166.76958496 -40.89892578 167.45581055 C-44.09774722 171.71930157 -47.11780532 176.05195046 -49.9140625 180.59375 C-50.27242187 181.0578125 -50.63078125 181.521875 -51 182 C-51.66 182 -52.32 182 -53 182 C-53.24492187 182.72058594 -53.48984375 183.44117188 -53.7421875 184.18359375 C-55.15047242 187.33692737 -56.86708137 189.45448598 -59.125 192.0625 C-63.35066046 197.07321855 -66.88405996 202.21768726 -70.37109375 207.76171875 C-70.90863281 208.50035156 -71.44617188 209.23898437 -72 210 C-72.66 210 -73.32 210 -74 210 C-74.2475 210.721875 -74.495 211.44375 -74.75 212.1875 C-76.12269592 215.27606582 -77.72353296 217.51011418 -80 220 C-80.66 220 -81.32 220 -82 220 C-82.103125 220.58652344 -82.20625 221.17304687 -82.3125 221.77734375 C-83.10741957 224.34728258 -84.17754419 225.60423618 -86 227.5625 C-88.11833137 229.84887208 -88.98917686 230.96753059 -90 234 C-90.66 234 -91.32 234 -92 234 C-92.103125 234.556875 -92.20625 235.11375 -92.3125 235.6875 C-93.85861745 240.88807689 -97.01743846 244.41569462 -101 248 C-101.99 248.33 -102.98 248.66 -104 249 C-104.0825 249.7425 -104.165 250.485 -104.25 251.25 C-105.1913551 254.70163538 -106.15845981 255.82819992 -109 258 C-111.6792182 258.3743979 -113.94082734 258.50787519 -116.61425781 258.45410156 C-117.75630173 258.45497772 -117.75630173 258.45497772 -118.92141724 258.45587158 C-121.43245386 258.45308973 -123.94229634 258.42199452 -126.453125 258.390625 C-128.19618074 258.38316293 -129.93924488 258.37746984 -131.68231201 258.37347412 C-136.26594276 258.35821501 -140.84906502 258.31893099 -145.43249512 258.2746582 C-150.11117677 258.23371138 -154.78994074 258.21546437 -159.46875 258.1953125 C-168.64605652 258.15243686 -177.82298594 258.08418228 -187 258 C-185.6719248 255.28506408 -184.29387822 252.90220488 -182.4609375 250.49609375 C-181.9664209 249.84253906 -181.4719043 249.18898438 -180.96240234 248.515625 C-180.43855957 247.82984375 -179.9147168 247.1440625 -179.375 246.4375 C-174.97716098 240.64606348 -170.68229715 234.81004654 -166.5234375 228.84375 C-166.02070313 228.2353125 -165.51796875 227.626875 -165 227 C-164.34 227 -163.68 227 -163 227 C-162.88374268 226.41065674 -162.76748535 225.82131348 -162.64770508 225.21411133 C-161.96181254 222.86946022 -161.11196554 221.50483297 -159.63671875 219.57421875 C-159.16169922 218.94193359 -158.68667969 218.30964844 -158.19726562 217.65820312 C-157.69904297 217.00787109 -157.20082031 216.35753906 -156.6875 215.6875 C-153.07432609 210.94491014 -149.85445764 206.24108256 -147 201 C-146.34 201 -145.68 201 -145 201 C-144.72929687 200.41863281 -144.45859375 199.83726562 -144.1796875 199.23828125 C-143.00254646 197.00483153 -141.68316328 195.16951599 -140.125 193.1875 C-137.83483751 190.19817732 -135.97855265 187.17943735 -134.1640625 183.875 C-132.77197829 181.6327167 -131.17492796 179.66524146 -129.5 177.625 C-125.84643038 173.15801971 -122.4925269 168.53834993 -119.1875 163.8125 C-115.3519986 158.32821546 -111.47785855 152.8820203 -107.5 147.5 C-103.64260462 142.27411964 -99.85975448 137.00171011 -96.125 131.6875 C-90.36728018 123.49565256 -84.51590834 115.37427267 -78.64111328 107.26611328 C-75.92351819 103.51355189 -73.21211427 99.75652333 -70.5 96 C-69.42578697 94.5130167 -68.35156821 93.02603754 -67.27734375 91.5390625 C-65.01752711 88.41029499 -62.76005342 85.27985198 -60.50390625 82.1484375 C-59.92769531 81.34921875 -59.35148437 80.55 -58.7578125 79.7265625 C-57.66735098 78.21398684 -56.57746029 76.70099941 -55.48828125 75.1875 C-52.49026995 71.03046372 -49.44690416 66.9118389 -46.36401367 62.81738281 C-44.59335471 60.45819446 -42.85596166 58.07592993 -41.125 55.6875 C-38.46310542 52.01731202 -35.7968147 48.35047177 -33.125 44.6875 C-30.55615636 41.15908831 -28.01240419 37.61435557 -25.48706055 34.0546875 C-17.27731714 22.49267271 -8.78301799 11.13340308 0 0 Z " transform="translate(401,376)" style="fill: #4E0E2B;"/><path d="M0 0 C3.42055781 1.14018594 3.62852503 1.56957325 5.4375 4.5 C8.45973864 9.21800846 11.63755318 13.80348189 14.875 18.375 C15.66233521 19.4880249 15.66233521 19.4880249 16.46557617 20.62353516 C20.59562139 26.45109625 24.77878595 32.23813188 29 38 C36.30007011 47.99662662 43.54796357 58.03138849 50.625 68.1875 C53.63893057 72.5081697 56.73111213 76.76778882 59.8359375 81.0234375 C65.43560899 88.72551273 70.96479919 96.47602469 76.375 104.3125 C84.70667688 116.37956967 93.19030395 128.31956068 101.9152832 140.10595703 C106.26737325 145.98899077 110.5430367 151.92137228 114.78125 157.88671875 C116.79331751 160.70998953 118.82793234 163.51456121 120.875 166.3125 C124.17855572 170.83837133 127.40609268 175.41389423 130.625 180 C135.67295743 187.1894413 140.84941049 194.27664597 146.10400391 201.31640625 C149.41091664 205.76560151 152.55185708 210.28721846 155.60253906 214.91552734 C157.53361323 217.79594509 159.59088278 220.54994153 161.6875 223.3125 C162.43386719 224.29863281 163.18023438 225.28476562 163.94921875 226.30078125 C165.19694801 227.94303062 166.46537507 229.57016151 167.76953125 231.16796875 C169 233 169 233 169 236 C169.66 236 170.32 236 171 236 C172.515625 237.90625 172.515625 237.90625 174.25 240.5 C176.38115681 243.63328188 178.51374214 246.73738286 180.8125 249.75 C184.13024677 254.12583898 187.30547229 258.60093184 190.4855957 263.07714844 C192.21206875 265.50551963 193.93054756 267.91382474 195.80078125 270.234375 C197 272 197 272 197 275 C197.66 275 198.32 275 199 275 C200.30932617 276.49365234 200.30932617 276.49365234 201.79296875 278.5859375 C202.60906616 279.72687866 202.60906616 279.72687866 203.44165039 280.89086914 C204.01778076 281.71063232 204.59391113 282.53039551 205.1875 283.375 C205.77974365 284.20700928 206.3719873 285.03901855 206.98217773 285.89624023 C208.66173045 288.25934528 210.33259859 290.62831133 212 293 C212.65742187 293.93199219 213.31484375 294.86398437 213.9921875 295.82421875 C215.04482129 297.32461467 216.09427067 298.8272494 217.140625 300.33203125 C223.49442818 309.44893791 229.92629212 318.51252864 236.375 327.5625 C236.98637817 328.42210327 236.98637817 328.42210327 237.61010742 329.29907227 C240.32144858 333.09584233 243.11870656 336.81087475 246.0390625 340.44921875 C247 342 247 342 247 345 C240.70173457 345.20327022 234.40431747 345.34311059 228.10351562 345.43945312 C225.96159256 345.47962228 223.81988802 345.53417106 221.67871094 345.60351562 C218.595155 345.70086094 215.51450236 345.74599031 212.4296875 345.78125 C210.99965897 345.84318542 210.99965897 345.84318542 209.54074097 345.90637207 C203.02227316 345.91074615 203.02227316 345.91074615 200.02008057 343.23608398 C196 338.04269111 196 338.04269111 196 335 C195.34 335 194.68 335 194 335 C192.7109375 333.57421875 192.7109375 333.57421875 191.375 331.6875 C190.92898438 331.07261719 190.48296875 330.45773437 190.0234375 329.82421875 C189 328 189 328 189 325 C188.34 325 187.68 325 187 325 C185.5546875 322.9453125 185.5546875 322.9453125 183.875 320.125 C180.87261801 315.26014454 177.58648965 310.87112942 173.96484375 306.45703125 C171.43019369 303.28745891 169.14722866 299.9747879 166.84765625 296.6328125 C164.79349139 293.70573615 162.6560249 290.85281129 160.5 288 C157.8728822 284.51917893 155.29018261 281.02608313 152.8125 277.4375 C148.7146778 271.51629087 144.40642776 265.75166712 140.12329102 259.96411133 C137.11067774 255.88675411 134.12531334 251.80105033 131.25 247.625 C128.36802921 243.4557966 125.29516789 239.45476424 122.18701172 235.45214844 C113.88377155 224.72209339 105.94270699 213.70681007 97.98046875 202.72265625 C96.00943576 200.01297184 94.02626641 197.31255029 92.04101562 194.61328125 C87.49806534 188.43486886 83.00028496 182.22747591 78.55249023 175.98022461 C75.47794121 171.66294129 72.37057149 167.37106979 69.24609375 163.08984375 C67.50225002 160.69092133 65.76608283 158.28712819 64.03515625 155.87890625 C58.26230822 147.85185699 52.43184159 139.88018422 46.46777344 131.99414062 C42.18736463 126.30775812 38.07510453 120.50981596 34.00756836 114.66967773 C31.45025893 111.00660024 28.80842853 107.47710199 26 104 C24.32322572 101.73580315 22.65698066 99.46603626 21 97.1875 C16.87567466 91.54647361 12.73631888 85.91702848 8.5625 80.3125 C8.06685547 79.64178467 7.57121094 78.97106934 7.06054688 78.2800293 C4.56489697 74.9387354 2.0601569 71.85759333 -1 69 C-1.23589844 69.5259375 -1.47179687 70.051875 -1.71484375 70.59375 C-3.40260196 73.75380792 -5.46645545 76.60389298 -7.5625 79.5 C-8.00650146 80.1172998 -8.45050293 80.73459961 -8.90795898 81.37060547 C-13.9167153 88.31073821 -19.06931807 95.14169353 -24.24609375 101.95703125 C-28.00210112 106.92381397 -31.66883617 111.92434025 -35.1875 117.0625 C-40.73863309 125.15546772 -46.60477254 133.01280182 -52.44482422 140.8984375 C-58.26613311 148.76497234 -63.93669275 156.73160559 -69.57202148 164.73168945 C-75.1349153 172.62266271 -80.80260671 180.42316528 -86.625 188.125 C-89.71099868 192.22211088 -92.61510984 196.37879083 -95.41796875 200.671875 C-97.29570476 203.43516058 -99.29462208 206.08737698 -101.3125 208.75 C-105.30210815 214.01815707 -109.08079745 219.40403366 -112.8203125 224.8515625 C-115.45304046 228.65439178 -118.17013598 232.38943025 -120.90234375 236.12109375 C-123.29038176 239.3985314 -125.64707076 242.69732184 -128 246 C-133.79221121 254.12323652 -139.59465186 262.23774196 -145.67578125 270.1484375 C-147.05978797 272.02261336 -147.05978797 272.02261336 -148.30078125 274.234375 C-150.59247134 277.96429819 -153.22620741 281.3931719 -155.875 284.875 C-156.91486302 286.24678938 -157.9539327 287.61918052 -158.9921875 288.9921875 C-159.49588867 289.65573242 -159.99958984 290.31927734 -160.51855469 291.00292969 C-161.9807022 292.9739855 -163.36970928 294.98421668 -164.7578125 297.0078125 C-165.49773437 297.99523437 -166.23765625 298.98265625 -167 300 C-167.66 300 -168.32 300 -169 300 C-169.11085938 300.57419678 -169.22171875 301.14839355 -169.3359375 301.73999023 C-170.08018248 304.27288575 -171.13647522 305.98333801 -172.625 308.16015625 C-173.16237793 308.94841797 -173.69975586 309.73667969 -174.25341797 310.54882812 C-174.82979004 311.37833984 -175.40616211 312.20785156 -176 313.0625 C-176.58797363 313.91650391 -177.17594727 314.77050781 -177.78173828 315.65039062 C-181.58224786 321.11615215 -185.49906283 326.33633518 -189.93334961 331.30761719 C-192.10611371 333.88121365 -192.10611371 333.88121365 -193.12768555 336.87036133 C-194.64349372 340.54312649 -195.89580975 342.47166416 -199 345 C-206.3785574 346.92913988 -214.40071743 346.02448476 -221.9375 345.6875 C-224.07344251 345.63229221 -226.20952114 345.58210746 -228.34570312 345.53710938 C-233.56678155 345.4161942 -238.78276144 345.2324619 -244 345 C-243.19152223 341.29301225 -241.80541124 339.10436206 -239.5 336.0625 C-236.40109091 331.90475078 -233.37623916 327.70962027 -230.4375 323.4375 C-229.69242188 322.35984375 -228.94734375 321.2821875 -228.1796875 320.171875 C-226.75936315 318.10502308 -225.34745806 316.03235225 -223.9453125 313.953125 C-223.32398438 313.04046875 -222.70265625 312.1278125 -222.0625 311.1875 C-221.51722656 310.37667969 -220.97195312 309.56585937 -220.41015625 308.73046875 C-219.94480469 308.15941406 -219.47945312 307.58835937 -219 307 C-218.34 307 -217.68 307 -217 307 C-216.88769043 306.41766602 -216.77538086 305.83533203 -216.65966797 305.23535156 C-215.93518505 302.78036798 -214.96835499 301.28287499 -213.4453125 299.234375 C-212.65483521 298.15845093 -212.65483521 298.15845093 -211.84838867 297.06079102 C-210.99531128 295.91694946 -210.99531128 295.91694946 -210.125 294.75 C-208.93464525 293.13004601 -207.74587178 291.50892904 -206.55859375 289.88671875 C-205.96030762 289.06993652 -205.36202148 288.2531543 -204.74560547 287.41162109 C-202.16023554 283.8398331 -199.66849262 280.20722991 -197.1875 276.5625 C-193.6143064 271.3281515 -189.98012035 266.15331866 -186.23046875 261.04296875 C-183.28197361 257.02041583 -180.35918815 252.97954716 -177.4375 248.9375 C-176.87458252 248.16051758 -176.31166504 247.38353516 -175.73168945 246.58300781 C-172.15227554 241.63231806 -168.65260509 236.64214538 -165.26953125 231.5546875 C-164.85058594 231.04164063 -164.43164062 230.52859375 -164 230 C-163.34 230 -162.68 230 -162 230 C-161.8772168 229.40719238 -161.75443359 228.81438477 -161.62792969 228.20361328 C-160.61626149 224.65333445 -158.35637262 221.85802589 -156.25 218.875 C-155.7655542 218.17995361 -155.2811084 217.48490723 -154.78198242 216.76879883 C-148.15650245 207.30187156 -141.35374014 197.96007809 -134.5390625 188.62890625 C-133.49878906 187.20384766 -133.49878906 187.20384766 -132.4375 185.75 C-131.85871094 184.96109375 -131.27992188 184.1721875 -130.68359375 183.359375 C-129.46807808 181.65596093 -128.28578194 179.92867291 -127.125 178.1875 C-124.66475213 174.49712819 -122.12309356 170.87113948 -119.5625 167.25 C-119.04099365 166.51193115 -118.5194873 165.7738623 -117.98217773 165.01342773 C-112.59146522 157.39927725 -107.12789667 149.83836555 -101.65429688 142.28369141 C-97.26410143 136.22320023 -92.88193675 130.15690216 -88.50488281 124.08691406 C-87.5333209 122.73958908 -86.56134548 121.39256214 -85.58886719 120.04589844 C-81.26642702 114.05591791 -76.9989323 108.04709791 -72.9375 101.875 C-70.31085396 97.89300461 -67.57413245 94.04766184 -64.6875 90.25 C-61.22209287 85.68681835 -57.91764775 81.0448015 -54.6875 76.3125 C-46.65852724 64.55181077 -38.45419893 52.92622694 -30.01049805 41.45947266 C-23.72760369 32.92400562 -17.51681817 24.35314052 -11.6875 15.5 C-8.99693266 11.42075274 -6.21483921 7.67410195 -3 4 C-1.9888778 2.67508126 -0.98336098 1.34565187 0 0 Z " transform="translate(402,289)" style="fill: #931364;"/><path d="M0 0 C3.05910046 0.32294144 4.61270538 0.61836758 6.83691406 2.81005859 C7.39088867 3.58172363 7.94486328 4.35338867 8.515625 5.1484375 C9.43214844 6.40914063 9.43214844 6.40914063 10.3671875 7.6953125 C11.29917969 9.02175781 11.29917969 9.02175781 12.25 10.375 C12.88679688 11.2515625 13.52359375 12.128125 14.1796875 13.03125 C18.83752894 19.51258681 18.83752894 19.51258681 20 23 C20.5775 23.103125 21.155 23.20625 21.75 23.3125 C25.93235914 24.59044307 28.26501256 28.73047625 30.375 32.375 C32.80273937 36.29673283 35.93630994 39.56558945 39 43 C41.16813361 45.51972285 42.77294315 47.39451507 43.9375 50.5 C45.32554162 53.76598028 47.48698304 55.49781501 50 58 C51.55473108 59.91040612 53.07378314 61.85021501 54.5625 63.8125 C54.98595703 64.36873047 55.40941406 64.92496094 55.84570312 65.49804688 C59.76690888 70.65992441 63.64750816 75.85282357 67.52856445 81.04492188 C70.73371729 85.32876661 73.97544284 89.58153799 77.25 93.8125 C94 115.51748392 94 115.51748392 94 119 C94.66 119 95.32 119 96 119 C97.72509196 121.23995645 99.34554127 123.48084328 100.9375 125.8125 C101.81894573 127.09168688 102.70298392 128.369092 103.58984375 129.64453125 C103.98034912 130.21534424 104.37085449 130.78615723 104.77319336 131.37426758 C105.98317698 133.06183452 105.98317698 133.06183452 107.60766602 134.57299805 C109.29286027 136.30015225 109.59563977 137.65471065 110 140 C110.66 140 111.32 140 112 140 C112 140.66 112 141.32 112 142 C112.66 142 113.32 142 114 142 C114.66 143.98 115.32 145.96 116 148 C140.09 148 164.18 148 189 148 C189.33 147.34 189.66 146.68 190 146 C190.33 146.99 190.66 147.98 191 149 C180.85571469 149.25552582 170.71220158 149.45064426 160.56534672 149.56993389 C155.85286912 149.62720686 151.14260183 149.70479852 146.43139648 149.82983398 C141.87947036 149.94987801 137.32966117 150.01522908 132.77627373 150.04364967 C131.04452627 150.06388497 129.3128874 150.10340587 127.58204842 150.16303062 C114.03611707 150.61085791 114.03611707 150.61085791 108.94821167 146.58560181 C106.65869046 143.82310514 104.78409161 141.10706672 103 138 C102.319375 136.989375 101.63875 135.97875 100.9375 134.9375 C100.298125 133.968125 99.65875 132.99875 99 132 C97.86386226 130.57554589 96.71642341 129.16008483 95.5625 127.75 C90.99386693 122.11449217 86.78382093 116.23565871 82.56860352 110.33300781 C79.80460589 106.46834014 76.97472071 102.70620941 74 99 C72.40481234 96.77813148 70.82221248 94.55039916 69.25 92.3125 C65.63415773 87.20350561 61.87535039 82.26893028 57.921875 77.4140625 C55.19951636 73.99451445 52.6703752 70.44508345 50.1171875 66.8984375 C47.46961779 63.2739048 44.7293332 59.72570628 41.98388672 56.17504883 C29.32423707 39.77949127 16.93443912 23.1313573 5.01904297 6.18701172 C3.44707775 3.96204494 1.93100935 1.93100935 0 0 Z " transform="translate(401,486)" style="fill: #851257;"/><path d="M0 0 C1 2 1 2 0.46875 4.06640625 C-1.74867039 9.77984023 -4.43228231 14.06713068 -8.33203125 18.7734375 C-10.48515793 21.64763471 -11.75377935 24.62626861 -13.10546875 27.93359375 C-14.78978063 31.82442775 -17.24813792 35.08309502 -19.921875 38.34375 C-21.9178145 40.89495086 -23.58016327 43.47774679 -25.25 46.25 C-28.174516 50.92670446 -31.40743755 54.93662431 -35.203125 58.9296875 C-37.13439189 61.15484283 -38.48968336 63.47386125 -40 66 C-41.43110915 67.79290641 -42.89125862 69.56290052 -44.375 71.3125 C-47.4616774 75.04037125 -50.23910612 78.71383818 -52.7109375 82.8671875 C-54.93396849 86.54529332 -57.36677531 90.08473498 -59.76171875 93.65234375 C-61.34304367 96.00917353 -62.90477753 98.37783412 -64.45703125 100.75390625 C-68.75220661 107.30520863 -73.14385614 113.56719093 -78.140625 119.61328125 C-80.1006571 122.1292048 -81.76730788 124.72152245 -83.4375 127.4375 C-87.09168853 133.31780338 -91.09678765 139.0872853 -96 144 C-96.99 144 -97.98 144 -99 144 C-101.17032476 145.43990623 -101.17032476 145.43990623 -103 147 C-101.29318734 143.18532034 -98.88567662 139.92335167 -96.4375 136.5625 C-95.53047832 135.30524385 -94.6242449 134.0474187 -93.71875 132.7890625 C-93.26242188 132.15516602 -92.80609375 131.52126953 -92.3359375 130.86816406 C-88.82483541 125.95826765 -85.42439289 120.97050326 -82 116 C-79.75142121 112.75031482 -77.501221 109.50176155 -75.25 106.25390625 C-73.74512329 104.07758282 -72.24514737 101.89786274 -70.75 99.71484375 C-65.13818706 91.54069261 -59.29390059 83.57252876 -53.2421875 75.71875 C-52.72914063 75.0484375 -52.21609375 74.378125 -51.6875 73.6875 C-51.25824219 73.13449219 -50.82898438 72.58148437 -50.38671875 72.01171875 C-48.84014577 69.83339816 -48.84014577 69.83339816 -47.13671875 66.6875 C-45.07124203 63.02216305 -42.65548532 59.66797113 -40.125 56.3125 C-35.62265129 50.25969405 -31.25031044 44.12669346 -26.9375 37.9375 C-21.74863632 30.49526314 -16.51905606 23.08576484 -11.22949219 15.71484375 C-8.9400025 12.52156027 -6.65812599 9.32283473 -4.375 6.125 C-3.52867524 4.94008316 -2.68232398 3.75518525 -1.8359375 2.5703125 C-1.23007813 1.72210938 -0.62421875 0.87390625 0 0 Z " transform="translate(204,467)" style="fill: #C8305F;"/><path d="M0 0 C0.66 0.33 1.32 0.66 2 1 C-5.43104131 11.67904612 -12.97563605 22.27215459 -20.6875 32.75 C-24.31631244 37.68110817 -27.89841608 42.63700554 -31.3828125 47.671875 C-32.51059915 49.29545192 -33.65237067 50.90936517 -34.8046875 52.515625 C-38.21557264 57.2879364 -41.2375427 62.03225985 -43.859375 67.28515625 C-45 69 -45 69 -48 70 C-48 69.34 -48 68.68 -48 68 C-47.34 68 -46.68 68 -46 68 C-46 66.68 -46 65.36 -46 64 C-48.64 65.98 -51.28 67.96 -54 70 C-52.30091812 64.28296348 -48.32306436 60.86185403 -44.25585938 56.72851562 C-43.72669922 56.17744141 -43.19753906 55.62636719 -42.65234375 55.05859375 C-41.92519165 54.32080688 -41.92519165 54.32080688 -41.18334961 53.56811523 C-39.80514463 51.74178749 -39.48947406 50.21404586 -39 48 C-37.5625 46.25 -37.5625 46.25 -36 45 C-35.34 45 -34.68 45 -34 45 C-33.7525 44.13375 -33.505 43.2675 -33.25 42.375 C-31.91304758 38.76522847 -30.20465073 36.14950105 -28 33 C-26.70471035 30.85285319 -25.41948393 28.70065102 -24.1484375 26.5390625 C-23.57996094 25.77722656 -23.57996094 25.77722656 -23 25 C-22.34 25 -21.68 25 -21 25 C-20.773125 24.278125 -20.54625 23.55625 -20.3125 22.8125 C-19.04147205 20.08886868 -17.72473095 18.60207301 -15.55078125 16.58203125 C-13.53276418 14.52334885 -11.82779249 12.27834116 -10.0625 10 C-6.98990138 6.0936602 -3.9683575 2.97626813 0 0 Z M-57 71 C-56.34 71.33 -55.68 71.66 -55 72 C-56.485 72.99 -56.485 72.99 -58 74 C-57.67 73.01 -57.34 72.02 -57 71 Z M-61 76 C-60.01 76.495 -60.01 76.495 -59 77 C-59.99 77.495 -59.99 77.495 -61 78 C-61 77.34 -61 76.68 -61 76 Z " transform="translate(199,538)" style="fill: #CC2C60;"/><path d="M0 0 C0.33 0 0.66 0 1 0 C0.97139026 6.17970331 -0.12717312 9.84928353 -4.06640625 14.58203125 C-6.55330016 17.69190465 -8.69585741 20.98288612 -10.875 24.3125 C-14.49513715 29.79897377 -18.23583782 35.16465371 -22.13671875 40.45703125 C-23.96143585 42.94736842 -25.73735168 45.465447 -27.5 48 C-39.59923796 65.34776585 -39.59923796 65.34776585 -44 70 C-44.99 70 -45.98 70 -47 70 C-49.17032476 71.43990623 -49.17032476 71.43990623 -51 73 C-49.29318734 69.18532034 -46.88567662 65.92335167 -44.4375 62.5625 C-43.53047832 61.30524385 -42.6242449 60.0474187 -41.71875 58.7890625 C-41.26242188 58.15516602 -40.80609375 57.52126953 -40.3359375 56.86816406 C-36.82483541 51.95826765 -33.42439289 46.97050326 -30 42 C-27.75142121 38.75031482 -25.501221 35.50176155 -23.25 32.25390625 C-21.74512329 30.07758282 -20.24514737 27.89786274 -18.75 25.71484375 C-13.67867904 18.32797172 -8.4216673 11.13090779 -3 4 C-2.44054687 3.22785156 -1.88109375 2.45570313 -1.3046875 1.66015625 C-0.87414062 1.11230469 -0.44359375 0.56445312 0 0 Z " transform="translate(152,541)" style="fill: #E0435D;"/><path d="M0 0 C0.33 0 0.66 0 1 0 C1.56461774 4.79925083 -0.27819164 7.30004176 -3 11 C-3.8813456 12.30824737 -4.75570728 13.62121302 -5.625 14.9375 C-6.39070313 16.08412109 -6.39070313 16.08412109 -7.171875 17.25390625 C-8.56199927 19.34206301 -9.94669908 21.43344574 -11.328125 23.52734375 C-28.0301331 48.79123984 -28.0301331 48.79123984 -34.4375 54 C-37.47076281 56.52336087 -40.25262864 59.16937496 -43 62 C-39.26513659 53.99672127 -33.68306499 46.73370942 -28.3125 39.7578125 C-27.0372752 38.04992215 -25.88901345 36.30064626 -24.75 34.5 C-24.1725 33.675 -23.595 32.85 -23 32 C-22.34 32 -21.68 32 -21 32 C-20.89059082 31.4220166 -20.78118164 30.8440332 -20.66845703 30.24853516 C-19.91668848 27.71975926 -18.86990084 26.14113904 -17.3046875 24.0234375 C-16.75651367 23.27433105 -16.20833984 22.52522461 -15.64355469 21.75341797 C-14.76812012 20.57610107 -14.76812012 20.57610107 -13.875 19.375 C-12.68947333 17.76087981 -11.50457312 16.1462993 -10.3203125 14.53125 C-9.74829102 13.75394531 -9.17626953 12.97664062 -8.58691406 12.17578125 C-6.04127547 8.68551493 -3.60131799 5.12669031 -1.171875 1.5546875 C-0.78515625 1.04164063 -0.3984375 0.52859375 0 0 Z " transform="translate(206,564)" style="fill: #DA3B66;"/><path d="M0 0 C-1.32352321 2.7806695 -2.79856078 5.27854504 -4.57421875 7.79296875 C-5.0736499 8.50138916 -5.57308105 9.20980957 -6.08764648 9.93969727 C-6.61559814 10.68147217 -7.1435498 11.42324707 -7.6875 12.1875 C-8.22769775 12.95054443 -8.76789551 13.71358887 -9.32446289 14.49975586 C-12.61528982 19.12546176 -15.97909185 23.66368428 -19.5703125 28.0625 C-21.09936103 30.1346532 -22.15617538 32.26580006 -23.3125 34.5625 C-24.46875 36.53515625 -24.46875 36.53515625 -26 38 C-29.42869963 38.6719828 -32.55427258 38.48173277 -36 38 C-36 37.67 -36 37.34 -36 37 C-34.35 37 -32.7 37 -31 37 C-30.91234375 36.42765625 -30.8246875 35.8553125 -30.734375 35.265625 C-29.80002376 32.38305202 -28.33962956 30.93389857 -26.25 28.75 C-23.69010363 25.96770129 -21.42700335 23.31596799 -19.5 20.0625 C-7.56661677 0 -7.56661677 0 0 0 Z " transform="translate(229,596)" style="fill: #DD3868;"/><path d="M0 0 C1 3 1 3 -0.1171875 5.3125 C-4.59746901 12.16235262 -9.19850175 19.18725853 -15 25 C-15.99 25 -16.98 25 -18 25 C-20.17032476 26.43990623 -20.17032476 26.43990623 -22 28 C-20.2449216 24.04862237 -17.71500276 20.66793458 -15.1875 17.1875 C-14.76146484 16.59646484 -14.33542969 16.00542969 -13.89648438 15.39648438 C-13.03612025 14.20290813 -12.17365164 13.01084602 -11.30908203 11.8203125 C-10.40833637 10.56780231 -9.51929513 9.30681839 -8.64013672 8.0390625 C-4.64885796 2.30316356 -4.64885796 2.30316356 -1 1 C-0.67 0.67 -0.34 0.34 0 0 Z " transform="translate(123,586)" style="fill: #EB4E55;"/><path d="M0 0 C0.66 0.33 1.32 0.66 2 1 C-4.48747153 10.38496583 -4.48747153 10.38496583 -7.1875 13.625 C-9.27770832 16.36389367 -10.59475489 19.18201545 -11.97265625 22.328125 C-13 24 -13 24 -16 25 C-16 24.34 -16 23.68 -16 23 C-15.34 23 -14.68 23 -14 23 C-14 21.68 -14 20.36 -14 19 C-16.64 20.98 -19.28 22.96 -22 25 C-20.48724008 19.68489759 -16.97439427 16.38598989 -13.25 12.5 C-12.6415625 11.84902344 -12.033125 11.19804688 -11.40625 10.52734375 C-7.80449268 6.71779274 -4.09858742 3.26881206 0 0 Z M-25 26 C-24.34 26.33 -23.68 26.66 -23 27 C-24.485 27.99 -24.485 27.99 -26 29 C-25.67 28.01 -25.34 27.02 -25 26 Z M-29 31 C-28.01 31.495 -28.01 31.495 -27 32 C-27.99 32.495 -27.99 32.495 -29 33 C-29 32.34 -29 31.68 -29 31 Z " transform="translate(167,583)" style="fill: #DF4663;"/><path d="M0 0 C0.33 0 0.66 0 1 0 C1.72255018 6.86422668 1.72255018 6.86422668 -0.1953125 9.87890625 C-1.24722686 11.06032765 -2.32664097 12.21773328 -3.4296875 13.3515625 C-5.20558217 15.1051521 -5.20558217 15.1051521 -6.875 18 C-9.25172715 21.3553795 -11.89692059 23.68724629 -15.02734375 26.3203125 C-17.49710842 28.42328043 -19.74304544 30.67251561 -22 33 C-18.26513659 24.99672127 -12.68306499 17.73370942 -7.3125 10.7578125 C-6.0372752 9.04992215 -4.88901345 7.30064626 -3.75 5.5 C-3.1725 4.675 -2.595 3.85 -2 3 C-1.34 3 -0.68 3 0 3 C0 2.01 0 1.02 0 0 Z " transform="translate(185,593)" style="fill: #E73F69;"/><path d="M0 0 C1 2 1 2 0.125 5.875 C-2.78642224 14.17794491 -8.38350673 21.64230484 -16 26 C-18.29582863 29.06717124 -18.29582863 29.06717124 -20 32 C-20.66 31.67 -21.32 31.34 -22 31 C-18.03517589 24.48282037 -13.84320759 18.39710611 -9 12.50390625 C-5.78929286 8.48425141 -2.89411635 4.25073338 0 0 Z " transform="translate(283,538)" style="fill: #7C2D3D;"/><path d="M0 0 C0.66 0.33 1.32 0.66 2 1 C1.75 2.8125 1.75 2.8125 1 5 C0.38125 5.4125 -0.2375 5.825 -0.875 6.25 C-3.22493857 8.18524352 -3.51651939 9.06469346 -4.4375 11.875 C-5.99126929 16.5106963 -8.54533662 19.77266831 -13 22 C-13.433125 23.2375 -13.433125 23.2375 -13.875 24.5 C-15 27 -15 27 -17.125 27.8125 C-17.74375 27.874375 -18.3625 27.93625 -19 28 C-17.66363266 25.1845996 -16.16208651 22.67420269 -14.35546875 20.13671875 C-13.84306641 19.41419922 -13.33066406 18.69167969 -12.80273438 17.94726562 C-12.26970703 17.20154297 -11.73667969 16.45582031 -11.1875 15.6875 C-10.40536133 14.58631836 -10.40536133 14.58631836 -9.60742188 13.46289062 C-8.07470475 11.30637102 -6.53807232 9.15270258 -5 7 C-4.5045166 6.30600098 -4.0090332 5.61200195 -3.49853516 4.89697266 C-2.33274397 3.26437188 -1.1664323 1.63214279 0 0 Z " transform="translate(309,502)" style="fill: #6C2A41;"/><path d="M0 0 C1 2 1 2 0.46875 4.06640625 C-1.76327586 9.81747288 -4.46972592 14.34458294 -8.4140625 19.08984375 C-10.15433786 21.11804906 -10.15433786 21.11804906 -12 24 C-12.99 24 -13.98 24 -15 24 C-14.40185609 19.90271421 -12.10400077 16.96701343 -9.75 13.6875 C-9.34467041 13.11298096 -8.93934082 12.53846191 -8.52172852 11.9465332 C-7.35364407 10.29355707 -6.17701831 8.64662664 -5 7 C-4.15501953 5.80890625 -4.15501953 5.80890625 -3.29296875 4.59375 C-2.20117395 3.05831524 -1.10178476 1.52828209 0 0 Z " transform="translate(204,467)" style="fill: #BB255B;"/><path d="M0 0 C-0.50908528 5.76963313 -3.80198856 9.1514808 -8.0390625 12.71484375 C-13.58455882 17 -13.58455882 17 -16 17 C-15.00102287 14.00306862 -14.34869747 12.97290587 -12 11 C-11.34 11 -10.68 11 -10 11 C-9.938125 10.443125 -9.87625 9.88625 -9.8125 9.3125 C-8.66125177 6.03587043 -6.51840336 4.33412994 -4 2 C-2 0 -2 0 0 0 Z " transform="translate(175,572)" style="fill: #DA3063;"/><path d="M0 0 C1 2 1 2 0 5 C-16.17 5 -32.34 5 -49 5 C-48.34 3.68 -47.68 2.36 -47 1 C-46.67 1.99 -46.34 2.98 -46 4 C-31.15 4 -16.3 4 -1 4 C-0.67 2.68 -0.34 1.36 0 0 Z " transform="translate(134,630)" style="fill: #F5B2B6;"/><path d="M0 0 C1 3 1 3 0.13671875 5.26171875 C-1.41383742 7.8571241 -2.78325361 9.93217131 -5 12 C-8.45696114 12.77049654 -11.52003423 12.55706962 -15 12 C-15 11.67 -15 11.34 -15 11 C-13.35 11 -11.7 11 -10 11 C-10 10.01 -10 9.02 -10 8 C-8.35443434 6.96564444 -6.6829392 5.97236487 -5 5 C-3.2958946 3.37163262 -1.61974559 1.71230248 0 0 Z " transform="translate(208,622)" style="fill: #EA3F65;"/><path d="M0 0 C4.97231851 2.19498745 8.68232996 5.73442423 12 10 C12.5 13.5 12.5 13.5 12 16 C7.1693267 11.60847882 3.52339133 6.48308737 0 1 C0 0.67 0 0.34 0 0 Z " transform="translate(426,518)" style="fill: #800A59;"/><path d="M0 0 C0.33 0 0.66 0 1 0 C0.65173073 8.30622213 0.65173073 8.30622213 -1.9375 11.0625 C-4 12 -4 12 -6 12 C-7.34882408 12.63474075 -8.6846659 13.29848848 -10 14 C-3.40446169 3.90882638 -3.40446169 3.90882638 0 0 Z " transform="translate(152,541)" style="fill: #DB3F60;"/><path d="M0 0 C4.65373672 1.55124557 7.06379322 5.37181429 9.4375 9.5 C11.53770655 12.86033048 14.13667149 15.26393053 17 18 C16.67 18.66 16.34 19.32 16 20 C15.30132812 19.28972656 14.60265625 18.57945312 13.8828125 17.84765625 C12.97273438 16.92855469 12.06265625 16.00945313 11.125 15.0625 C10.22007812 14.14597656 9.31515625 13.22945312 8.3828125 12.28515625 C6.22317745 9.98812373 6.22317745 9.98812373 4 9 C3.28752268 7.3523962 2.62599617 5.68236471 2 4 C1.34786461 2.65949948 0.68620031 1.32338632 0 0 Z " transform="translate(422,509)" style="fill: #650046;"/><path d="M0 0 C0.66 1.32 1.32 2.64 2 4 C1.319375 4.66 0.63875 5.32 -0.0625 6 C-3.56725347 9.49468234 -6.77221788 13.25130779 -10 17 C-10 13.71752569 -9.66923327 13.17433033 -7.8125 10.64453125 C-7.13574219 9.71157227 -7.13574219 9.71157227 -6.4453125 8.75976562 C-5.96835938 8.11716797 -5.49140625 7.47457031 -5 6.8125 C-4.52304688 6.15830078 -4.04609375 5.50410156 -3.5546875 4.83007812 C-2.37610725 3.21542318 -1.18886818 1.60709503 0 0 Z " transform="translate(174,609)" style="fill: #EA5C78;"/><path d="M0 0 C0.66 0.33 1.32 0.66 2 1 C0.9218837 2.58689029 -0.16273952 4.16936082 -1.25 5.75 C-1.85328125 6.63171875 -2.4565625 7.5134375 -3.078125 8.421875 C-4.89141332 10.85433494 -6.80049269 12.91728069 -9 15 C-9 10.69923077 -7.26896869 7.60280331 -5 4 C-2.25 1.5 -2.25 1.5 0 0 Z " transform="translate(167,583)" style="fill: #E23965;"/><path d="M0 0 C0.33 0.66 0.66 1.32 1 2 C-0.75832302 7.17728444 -2.74201216 10.39708721 -7 14 C-7.66 14 -8.32 14 -9 14 C-7.45158425 10.65291949 -5.50894136 7.75332488 -3.375 4.75 C-2.74335938 3.85796875 -2.11171875 2.9659375 -1.4609375 2.046875 C-0.73777344 1.03367187 -0.73777344 1.03367187 0 0 Z " transform="translate(204,467)" style="fill: #C13369;"/><path d="M0 0 C0.33 0 0.66 0 1 0 C1.35233161 5.37305699 1.35233161 5.37305699 1 8 C-1 10 -1 10 -3 11 C-3 10.34 -3 9.68 -3 9 C-3.66 9 -4.32 9 -5 9 C-4 7 -3 5 -2 3 C-1.34 3 -0.68 3 0 3 C0 2.01 0 1.02 0 0 Z " transform="translate(185,593)" style="fill: #E5496F;"/><path d="M0 0 C0.99 0.33 1.98 0.66 3 1 C3.99 1 4.98 1 6 1 C4.02 3.97 2.04 6.94 0 10 C-1.231394 6.30581799 -0.64432764 3.7943739 0 0 Z " transform="translate(222,501)" style="fill: #B42963;"/><path d="M0 0 C0.33 0 0.66 0 1 0 C1 1.65 1 3.3 1 5 C0.34 5 -0.32 5 -1 5 C-1.2475 5.804375 -1.495 6.60875 -1.75 7.4375 C-3 10 -3 10 -5.125 10.8125 C-5.74375 10.874375 -6.3625 10.93625 -7 11 C-5.23867546 6.99698968 -2.73867517 3.3971023 0 0 Z " transform="translate(353,441)" style="fill: #6C324F;"/><path d="M0 0 C0 6.60669543 -6.05584158 12.04008571 -10 17 C-10 12.88343101 -7.87664321 10.59162394 -5.5625 7.375 C-5.14162109 6.776875 -4.72074219 6.17875 -4.28710938 5.5625 C-1.2094293 1.2094293 -1.2094293 1.2094293 0 0 Z " transform="translate(224,539)" style="fill: #CD5687;"/><path d="M0 0 C0.33 0.99 0.66 1.98 1 3 C-0.65234375 5.69921875 -0.65234375 5.69921875 -2.9375 8.6875 C-3.68902344 9.68136719 -4.44054687 10.67523437 -5.21484375 11.69921875 C-5.80394531 12.45847656 -6.39304687 13.21773437 -7 14 C-7.66 13.67 -8.32 13.34 -9 13 C-7.8782037 11.2063257 -6.75245517 9.4151227 -5.625 7.625 C-4.68527344 6.12839844 -4.68527344 6.12839844 -3.7265625 4.6015625 C-2 2 -2 2 0 0 Z " transform="translate(270,556)" style="fill: #8B4954;"/><path d="M0 0 C0.66 0.33 1.32 0.66 2 1 C1.52591957 5.26672384 -0.88307122 7.2455048 -4 10 C-5.3173 10.69781297 -6.64818622 11.37165159 -8 12 C-6.85573734 10.186508 -5.70954608 8.37423275 -4.5625 6.5625 C-3.60537109 5.04849609 -3.60537109 5.04849609 -2.62890625 3.50390625 C-1 1 -1 1 0 0 Z " transform="translate(309,502)" style="fill: #7B4058;"/><path d="M0 0 C0.66 0.33 1.32 0.66 2 1 C-0.28538605 5.08963819 -2.95706926 8.46362104 -6 12 C-6 7.61899946 -4.22914863 4.3657207 -1.3125 1.125 C-0.879375 0.75375 -0.44625 0.3825 0 0 Z " transform="translate(363,431)" style="fill: #400C22;"/><path d="M0 0 C0.33 0.99 0.66 1.98 1 3 C6.94 3 12.88 3 19 3 C19 3.33 19 3.66 19 4 C12.07 4 5.14 4 -2 4 C-1.34 2.68 -0.68 1.36 0 0 Z " transform="translate(87,631)" style="fill: #F8ACA7;"/><path d="M0 0 C0.99 0.33 1.98 0.66 3 1 C2.38125 1.556875 1.7625 2.11375 1.125 2.6875 C-1.14083443 4.86133434 -1.14083443 4.86133434 -2 7.6875 C-2.33 8.450625 -2.66 9.21375 -3 10 C-5.0625 10.64453125 -5.0625 10.64453125 -7 11 C-6.02262231 9.35310365 -5.0430468 7.70751146 -4.0625 6.0625 C-3.51722656 5.14597656 -2.97195313 4.22945313 -2.41015625 3.28515625 C-1 1 -1 1 0 0 Z " transform="translate(361,430)" style="fill: #633249;"/><path d="M0 0 C0.33 0 0.66 0 1 0 C1.3125 2.8125 1.3125 2.8125 1 6 C-1.85074644 8.31141604 -3.3139451 9 -7 9 C-5.85793642 7.49712782 -4.71125043 5.99776716 -3.5625 4.5 C-2.92441406 3.6646875 -2.28632813 2.829375 -1.62890625 1.96875 C-0.82259766 0.99421875 -0.82259766 0.99421875 0 0 Z " transform="translate(152,541)" style="fill: #E2526D;"/><path d="M0 0 C0.33 0 0.66 0 1 0 C1.36458333 4.49652778 1.36458333 4.49652778 -0.3125 6.8125 C-2 8 -2 8 -5 8 C-3.6299034 5.0490227 -2.06764583 2.51713405 0 0 Z " transform="translate(289,530)" style="fill: #843B4E;"/><path d="M0 0 C0.99 0.33 1.98 0.66 3 1 C3 1.66 3 2.32 3 3 C1.46875 4.5078125 1.46875 4.5078125 -0.5 6.125 C-1.1496875 6.66382813 -1.799375 7.20265625 -2.46875 7.7578125 C-2.9740625 8.16773438 -3.479375 8.57765625 -4 9 C-4.66 8.67 -5.32 8.34 -6 8 C-4.02 5.36 -2.04 2.72 0 0 Z " transform="translate(401,358)" style="fill: #E3CFDE;"/><path d="M0 0 C-1.1858237 3.37503669 -2.27573689 5.64722731 -5 8 C-5.04241723 5.66705225 -5.04092937 3.33297433 -5 1 C-4 0 -4 0 0 0 Z " transform="translate(158,538)" style="fill: #D53B5C;"/><path d="M0 0 C1 2 1 2 0.3125 4.5625 C-1 7 -1 7 -3.125 7.8125 C-3.74375 7.874375 -4.3625 7.93625 -5 8 C-3.62845496 5.04590299 -2.01136276 2.55991624 0 0 Z " transform="translate(295,522)" style="fill: #7F3A51;"/><path d="M0 0 C0.33 0.99 0.66 1.98 1 3 C-0.14453125 4.82421875 -0.14453125 4.82421875 -1.8125 6.6875 C-2.35519531 7.31011719 -2.89789063 7.93273437 -3.45703125 8.57421875 C-5 10 -5 10 -7 10 C-6.00102287 7.00306862 -5.34869747 5.97290587 -3 4 C-2.34 4 -1.68 4 -1 4 C-0.67 2.68 -0.34 1.36 0 0 Z " transform="translate(166,579)" style="fill: #D5385F;"/><path d="M0 0 C1.04059132 3.12177395 1.32284898 4.07083439 0 7 C-2.5625 8.25 -2.5625 8.25 -5 9 C-3.7508258 5.54074837 -2.32472205 2.85306797 0 0 Z " transform="translate(196,578)" style="fill: #E3476D;"/><path d="M0 0 C0.33 1.32 0.66 2.64 1 4 C-0.98 4.99 -0.98 4.99 -3 6 C-3 6.66 -3 7.32 -3 8 C-3.66 8 -4.32 8 -5 8 C-3.62845496 5.04590299 -2.01136276 2.55991624 0 0 Z " transform="translate(325,480)" style="fill: #8E476D;"/><path d="M0 0 C2.375 0.1875 2.375 0.1875 5 1 C6.3125 3.5625 6.3125 3.5625 7 6 C6.01 6.495 6.01 6.495 5 7 C4.54625 6.21625 4.0925 5.4325 3.625 4.625 C2.11571258 1.96301969 2.11571258 1.96301969 0 0 Z " transform="translate(401,486)" style="fill: #7C1A5F;"/><path d="M0 0 C0 3.59857954 -0.95830515 5.09451118 -3 8 C-3.66 8 -4.32 8 -5 8 C-3.8141763 4.62496331 -2.72426311 2.35277269 0 0 Z " transform="translate(212,556)" style="fill: #D35281;"/><path d="M0 0 C0.66 0.33 1.32 0.66 2 1 C-1.465 3.97 -1.465 3.97 -5 7 C-4.67 5.68 -4.34 4.36 -4 3 C-3.34 3 -2.68 3 -2 3 C-2 2.34 -2 1.68 -2 1 C-1.34 0.67 -0.68 0.34 0 0 Z " transform="translate(118,561)" style="fill: #D04044;"/><path d="M0 0 C2.62187494 1.04874998 3.79371361 1.64931313 5.25 4.125 C5.4975 4.74375 5.745 5.3625 6 6 C5.01 6 4.02 6 3 6 C2.01 4.02 1.02 2.04 0 0 Z " transform="translate(426,518)" style="fill: #880E61;"/><path d="M0 0 C0.33 0.99 0.66 1.98 1 3 C-0.8125 5.6875 -0.8125 5.6875 -3 8 C-3.66 8 -4.32 8 -5 8 C-3.62845496 5.04590299 -2.01136276 2.55991624 0 0 Z " transform="translate(398,380)" style="fill: #462735;"/></svg>